<svg width="20" height="21" viewBox="0 0 20 21" fill="none" xmlns="http://www.w3.org/2000/svg">
<g clip-path="url(#clip0_644_171)">
<path d="M10 0.5C9.30859 0.5 8.75 1.05859 8.75 1.75V2.44922C5.91797 2.89844 3.75 5.35156 3.75 8.3125V9.61719C3.75 11.3906 3.14453 13.1133 2.03906 14.4961L1.45703 15.2266C1.23047 15.5078 1.1875 15.8945 1.34375 16.2188C1.5 16.543 1.82812 16.75 2.1875 16.75H17.8125C18.1719 16.75 18.5 16.543 18.6562 16.2188C18.8125 15.8945 18.7695 15.5078 18.543 15.2266L17.9609 14.5C16.8555 13.1133 16.25 11.3906 16.25 9.61719V8.3125C16.25 5.35156 14.082 2.89844 11.25 2.44922V1.75C11.25 1.05859 10.6914 0.5 10 0.5ZM10 4.25H10.3125C12.5547 4.25 14.375 6.07031 14.375 8.3125V9.61719C14.375 11.4883 14.918 13.3125 15.9258 14.875H4.07422C5.08203 13.3125 5.625 11.4883 5.625 9.61719V8.3125C5.625 6.07031 7.44531 4.25 9.6875 4.25H10ZM12.5 18H10H7.5C7.5 18.6641 7.76171 19.3008 8.23046 19.7695C8.69921 20.2383 9.33593 20.5 10 20.5C10.6641 20.5 11.3008 20.2383 11.7695 19.7695C12.2383 19.3008 12.5 18.6641 12.5 18Z" fill="white"/>
</g>
<defs>
<clipPath id="clip0_644_171">
<rect width="20" height="20" fill="white" transform="translate(0 0.5)"/>
</clipPath>
</defs>
</svg>
