<svg width="20" height="20" viewBox="0 0 20 20" fill="none" xmlns="http://www.w3.org/2000/svg">
<path d="M18.2503 4.50031C18.9397 4.50048 19.5003 5.06093 19.5003 5.75031V16.2503C19.5001 16.9395 18.9395 17.5001 18.2503 17.5003H11.2904L14.6058 15.5862H14.6068C16.1067 14.7197 16.6526 12.8335 15.8724 11.306L15.7923 11.1595L11.9466 4.50031H18.2503ZM7.14778 2.6673C7.70268 2.34617 8.40446 2.50367 8.77278 3.01495L8.84211 3.1214L14.0609 12.1624V12.1634C14.3814 12.7172 14.2225 13.4195 13.7122 13.7884L13.6058 13.8577L7.57844 17.3323L7.57747 17.3333C6.98671 17.6751 6.22682 17.4709 5.88313 16.8773H5.88215L0.66731 7.84113V7.84015L0.608716 7.72687C0.368332 7.19279 0.53803 6.55887 1.01497 6.21515L1.12141 6.14581L7.1468 2.6673H7.14778ZM6.17122 6.4798C5.63307 6.39172 5.10349 6.69712 4.9095 7.20831L4.87336 7.32062L4.64778 8.16144L4.01106 10.5384C3.72017 11.6189 4.364 12.7264 5.43782 13.0169C5.98043 13.1636 6.5313 13.0721 6.98176 12.8089C6.99565 12.9336 7.03521 13.0571 7.1009 13.1712C7.34193 13.5898 7.8627 13.7507 8.29329 13.5579L8.37727 13.515L8.37825 13.514L9.88118 12.6478C10.3096 12.4048 10.4614 11.8808 10.2698 11.4534L10.2269 11.3694L10.1751 11.2894C10.1184 11.2106 10.051 11.1429 9.9759 11.0872C10.4275 10.8288 10.7801 10.3985 10.9261 9.8587C11.1991 8.8485 10.6504 7.80894 9.69563 7.44366L9.49934 7.38019L9.49836 7.37921L7.12044 6.74249L6.29329 6.50616L6.28645 6.50519L6.17122 6.4798ZM16.5003 5.81378C15.9822 5.43986 15.2495 5.37034 14.6868 5.76593L14.5648 5.86163C13.8552 6.47177 13.8171 7.5534 14.4534 8.20929V8.21027L15.9603 9.763V9.76398C16.0269 9.83505 16.1032 9.88801 16.1839 9.92609V10.6663L17.0443 9.77179L18.5482 8.20929L18.5472 8.20831C19.1406 7.59292 19.1487 6.60557 18.5706 5.98273L18.4466 5.86359L18.4398 5.85675L18.3128 5.76202C17.7455 5.37797 17.019 5.4366 16.5003 5.81378Z" fill="#1C1C1C" stroke="white"/>
</svg>
