<svg width="29" height="28" viewBox="0 0 29 28" fill="none" xmlns="http://www.w3.org/2000/svg">
<path d="M20.1666 2.33337H8.49996C5.2783 2.33337 2.66663 4.94505 2.66663 8.16671V19.8334C2.66663 23.055 5.2783 25.6667 8.49996 25.6667H20.1666C23.3883 25.6667 26 23.055 26 19.8334V8.16671C26 4.94505 23.3883 2.33337 20.1666 2.33337Z" stroke="#E2C36A" stroke-width="2" stroke-linecap="round" stroke-linejoin="round"/>
<path d="M18.9999 13.265C19.1439 14.2359 18.978 15.2276 18.526 16.0988C18.0739 16.9701 17.3586 17.6766 16.4818 18.1179C15.605 18.5592 14.6114 18.7128 13.6423 18.5569C12.6732 18.401 11.778 17.9434 11.0839 17.2493C10.3898 16.5553 9.93226 15.66 9.77631 14.6909C9.62037 13.7218 9.77398 12.7282 10.2153 11.8514C10.6566 10.9746 11.3631 10.2593 12.2344 9.80727C13.1056 9.35518 14.0973 9.18934 15.0682 9.33332C16.0586 9.48018 16.9756 9.94169 17.6835 10.6497C18.3915 11.3577 18.853 12.2746 18.9999 13.265Z" stroke="#E2C36A" stroke-width="2" stroke-linecap="round" stroke-linejoin="round"/>
<path d="M20.7499 7.58337H20.7632" stroke="#E2C36A" stroke-width="2" stroke-linecap="round" stroke-linejoin="round"/>
</svg>
