<svg width="24" height="24" viewBox="0 0 24 24" fill="none" xmlns="http://www.w3.org/2000/svg">
<path d="M20.5577 15.8428L21.2429 15.5378C21.1108 15.2409 20.8025 15.063 20.4794 15.0969L20.5577 15.8428ZM14.3605 21.4229L13.6269 21.267C13.5593 21.5848 13.7041 21.9099 13.9855 22.0724L14.3605 21.4229ZM3.04214 7.55018L2.3707 7.216L2.3707 7.216L3.04214 7.55018ZM2.87069 16.0872L2.18634 16.3941L2.18634 16.3941L2.87069 16.0872ZM20.8887 16.5862L21.5549 16.9306L20.8887 16.5862ZM10.5002 5.41146L10.0593 6.01823L14.229 9.04764L14.6698 8.44088L15.1107 7.83411L10.941 4.8047L10.5002 5.41146ZM14.6698 8.44088L13.9565 8.20911L12.3639 13.1108L13.0772 13.3426L13.7905 13.5743L15.3831 8.67264L14.6698 8.44088ZM13.0772 13.3426V12.5926H7.92321V13.3426V14.0926H13.0772V13.3426ZM7.92321 13.3426L8.6365 13.1108L7.04384 8.20911L6.33055 8.44088L5.61726 8.67264L7.20992 13.5743L7.92321 13.3426ZM6.33055 8.44088L6.77139 9.04764L10.941 6.01823L10.5002 5.41146L10.0593 4.8047L5.88971 7.83411L6.33055 8.44088ZM20.5577 15.8428L20.4794 15.0969L15.3536 15.6357L15.432 16.3816L15.5104 17.1275L20.6361 16.5887L20.5577 15.8428ZM15.432 16.3816L14.6984 16.2256L13.6269 21.267L14.3605 21.4229L15.0941 21.5788L16.1656 16.5375L15.432 16.3816ZM10.5002 5.41146H11.2502V2.1233H10.5002H9.75018V5.41146H10.5002ZM14.6698 8.44088L14.8659 9.16479L18.3683 8.21605L18.1722 7.49214L17.9761 6.76823L14.4737 7.71697L14.6698 8.44088ZM13.0772 13.3426L12.4843 13.802L14.8392 16.841L15.432 16.3816L16.0249 15.9222L13.67 12.8832L13.0772 13.3426ZM7.92321 13.3426L7.32062 12.896L5.0687 15.935L5.67129 16.3816L6.27388 16.8281L8.5258 13.7891L7.92321 13.3426ZM19.0957 5.08632L18.3955 4.81755L17.472 7.22336L18.1722 7.49214L18.8724 7.76091L19.7959 5.3551L19.0957 5.08632ZM18.1722 7.49214L17.8107 8.14931L21.3003 10.0684L21.6617 9.41123L22.0231 8.75406L18.5336 6.83496L18.1722 7.49214ZM12 2V2.75C16.2795 2.75 19.8819 5.65677 20.9371 9.60488L21.6617 9.41123L22.3862 9.21758C21.1601 4.62978 16.9757 1.25 12 1.25V2ZM21.6617 9.41123L20.9371 9.60488C21.1411 10.368 21.25 11.1707 21.25 12H22H22.75C22.75 11.0388 22.6237 10.1059 22.3862 9.21758L21.6617 9.41123ZM6.33055 8.44088L6.52663 7.71696L3.23822 6.82627L3.04214 7.55018L2.84606 8.2741L6.13447 9.16479L6.33055 8.44088ZM2 12H2.75C2.75 10.5199 3.09707 9.12305 3.71357 7.88436L3.04214 7.55018L2.3707 7.216C1.65317 8.65767 1.25 10.2828 1.25 12H2ZM3.04214 7.55018L3.71357 7.88436C5.22904 4.83948 8.37119 2.75 12 2.75V2V1.25C7.78036 1.25 4.12996 3.68129 2.3707 7.216L3.04214 7.55018ZM2.87069 16.0872L2.79229 16.8331L5.59289 17.1275L5.67129 16.3816L5.74968 15.6357L2.94909 15.3413L2.87069 16.0872ZM2.87069 16.0872L3.55504 15.7804C3.03797 14.6272 2.75 13.3482 2.75 12H2H1.25C1.25 13.5639 1.58441 15.0516 2.18634 16.3941L2.87069 16.0872ZM12 22V21.25C10.1266 21.25 8.38537 20.6939 6.92964 19.7379L6.51795 20.3648L6.10626 20.9917C7.79907 22.1034 9.82516 22.75 12 22.75V22ZM6.51795 20.3648L6.92964 19.7379C5.45937 18.7724 4.28091 17.3992 3.55504 15.7804L2.87069 16.0872L2.18634 16.3941C3.03031 18.2763 4.39911 19.8706 6.10626 20.9917L6.51795 20.3648ZM5.67129 16.3816L4.93768 16.5375L5.78434 20.5207L6.51795 20.3648L7.25156 20.2089L6.4049 16.2256L5.67129 16.3816ZM20.8887 16.5862L21.5739 16.2811L21.2429 15.5378L20.5577 15.8428L19.8726 16.1479L20.2035 16.8912L20.8887 16.5862ZM22 12H21.25C21.25 13.5304 20.8789 14.972 20.2225 16.2417L20.8887 16.5862L21.5549 16.9306C22.3189 15.4529 22.75 13.7757 22.75 12H22ZM20.8887 16.5862L20.2225 16.2417C19.058 18.494 16.9954 20.2063 14.5112 20.9053L14.7144 21.6272L14.9175 22.3492C17.8078 21.5359 20.2026 19.5462 21.5549 16.9306L20.8887 16.5862ZM14.7144 21.6272L14.5112 20.9053C13.7136 21.1297 12.8714 21.25 12 21.25V22V22.75C13.0101 22.75 13.9889 22.6105 14.9175 22.3492L14.7144 21.6272ZM14.3605 21.4229L13.9855 22.0724L14.3394 22.2767L14.7144 21.6272L15.0894 20.9777L14.7355 20.7734L14.3605 21.4229Z" fill="white"/>
</svg>
