<svg width="20" height="20" viewBox="0 0 20 20" fill="none" xmlns="http://www.w3.org/2000/svg">
<path d="M10 17.5834C8.96153 17.5834 7.9816 17.3857 7.06021 16.9904C6.13868 16.5952 5.33201 16.0516 4.64021 15.3598C3.9484 14.668 3.40486 13.8613 3.00958 12.9398C2.61431 12.0184 2.41667 11.0385 2.41667 10C2.41667 8.94766 2.61431 7.96426 3.00958 7.04981C3.40486 6.13523 3.9484 5.33203 4.64021 4.64023C5.33201 3.94842 6.13868 3.40488 7.06021 3.0096C7.9816 2.61433 8.96153 2.41669 10 2.41669C11.0524 2.41669 12.0358 2.61433 12.9502 3.0096C13.8648 3.40488 14.668 3.94842 15.3598 4.64023C16.0516 5.33203 16.5951 6.13523 16.9904 7.04981C17.3857 7.96426 17.5833 8.94766 17.5833 10C17.5833 11.0385 17.3857 12.0184 16.9904 12.9398C16.5951 13.8613 16.0516 14.668 15.3598 15.3598C14.668 16.0516 13.8648 16.5952 12.9502 16.9904C12.0358 17.3857 11.0524 17.5834 10 17.5834ZM9.45833 16.4823V15.109C8.93486 15.0555 8.44847 14.9345 7.99917 14.7461C7.55 14.5575 7.14215 14.3082 6.77563 13.9984L5.81083 14.9471C6.31194 15.367 6.86889 15.7145 7.48167 15.9896C8.09431 16.2647 8.75319 16.429 9.45833 16.4823ZM10.5417 16.4823C11.2468 16.429 11.9044 16.2647 12.5144 15.9896C13.1245 15.7145 13.6801 15.367 14.181 14.9471L13.2244 13.9984C12.8578 14.3082 12.45 14.5575 12.0008 14.7461C11.5515 14.9345 11.0651 15.0555 10.5417 15.109V16.4823ZM10 14.0721C11.1325 14.0721 12.0943 13.6765 12.8854 12.8854C13.6765 12.0943 14.0721 11.1325 14.0721 10C14.0721 8.86752 13.6765 7.90571 12.8854 7.1146C12.0943 6.32349 11.1325 5.92794 10 5.92794C8.8675 5.92794 7.90569 6.32349 7.11458 7.1146C6.32347 7.90571 5.92792 8.86752 5.92792 10C5.92792 11.1325 6.32347 12.0943 7.11458 12.8854C7.90569 13.6765 8.8675 14.0721 10 14.0721ZM14.9471 14.1892C15.3669 13.6881 15.7144 13.1311 15.9896 12.5184C16.2647 11.9057 16.429 11.2468 16.4823 10.5417H15.109C15.0555 11.0652 14.9345 11.5515 14.746 12.0009C14.5574 12.45 14.3082 12.8579 13.9983 13.2244L14.9471 14.1892ZM5.05292 14.1892L6.00167 13.2323C5.69181 12.8659 5.44257 12.4568 5.25396 12.0048C5.06549 11.5529 4.94451 11.0652 4.89104 10.5417H3.51771C3.57104 11.2468 3.73528 11.9057 4.01042 12.5184C4.28556 13.1311 4.63306 13.6881 5.05292 14.1892ZM9.74042 12.4038L8.2275 10.4102C8.12708 10.2875 8.07688 10.1507 8.07688 10C8.07688 9.84933 8.12708 9.71259 8.2275 9.58981L9.74042 7.59627C9.80444 7.49585 9.89097 7.44565 10 7.44565C10.109 7.44565 10.1956 7.49585 10.2596 7.59627L11.7725 9.58981C11.8729 9.71259 11.9231 9.84933 11.9231 10C11.9231 10.1507 11.8729 10.2875 11.7725 10.4102L10.2596 12.4038C10.1956 12.5042 10.109 12.5544 10 12.5544C9.89097 12.5544 9.80444 12.5042 9.74042 12.4038ZM3.51771 9.45835H4.89104C4.94451 8.93488 5.06549 8.44717 5.25396 7.99523C5.44257 7.54328 5.69181 7.13412 6.00167 6.76773L5.05292 5.81898C4.63306 6.31995 4.28556 6.87551 4.01042 7.48565C3.73528 8.09565 3.57104 8.75321 3.51771 9.45835ZM15.109 9.45835H16.4823C16.429 8.75321 16.266 8.09565 15.9935 7.48565C15.7212 6.87551 15.3751 6.31995 14.9552 5.81898L13.9983 6.77565C14.3082 7.14217 14.5574 7.55002 14.746 7.99919C14.9345 8.44849 15.0555 8.93488 15.109 9.45835ZM6.76771 6.00169C7.1341 5.69183 7.54326 5.44259 7.99521 5.25398C8.44715 5.06551 8.93486 4.94453 9.45833 4.89106V3.51773C8.75319 3.57106 8.09431 3.7353 7.48167 4.01044C6.86889 4.28558 6.31194 4.63308 5.81083 5.05294L6.76771 6.00169ZM13.2244 6.00169L14.181 5.04481C13.6801 4.62495 13.1245 4.27884 12.5144 4.00648C11.9044 3.73398 11.2468 3.57106 10.5417 3.51773V4.89106C11.0651 4.94453 11.5515 5.06551 12.0008 5.25398C12.45 5.44259 12.8578 5.69183 13.2244 6.00169Z" fill="white"/>
</svg>
