<svg width="16" height="16" viewBox="0 0 16 16" fill="none" xmlns="http://www.w3.org/2000/svg">
<path d="M12 7.33334C12 4.75601 9.91066 2.66668 7.33333 2.66668C4.756 2.66668 2.66667 4.75601 2.66667 7.33334C2.66667 9.91067 4.756 12 7.33333 12C9.91066 12 12 9.91067 12 7.33334ZM13.3333 7.33334C13.3333 8.74999 12.8412 10.051 12.0202 11.0775L14.4714 13.5287L14.5169 13.5794C14.7305 13.8413 14.7154 14.2273 14.4714 14.4714C14.2273 14.7154 13.8413 14.7305 13.5794 14.5169L13.5286 14.4714L11.0775 12.0202C10.051 12.8412 8.74998 13.3333 7.33333 13.3333C4.01962 13.3333 1.33333 10.6471 1.33333 7.33334C1.33333 4.01963 4.01962 1.33334 7.33333 1.33334C10.647 1.33334 13.3333 4.01963 13.3333 7.33334Z" fill="white"/>
</svg>
