<svg width="179" height="36" viewBox="0 0 179 36" fill="none" xmlns="http://www.w3.org/2000/svg">
<g clip-path="url(#clip0_717_32)">
<path d="M-0.0319756 7.03333H6.84349V22.1977C6.84349 26.7056 10.5127 30.3748 15.0224 30.3748H26.3243V7.03333H33.1997V36.0089H15.0206C6.71935 36.0089 -0.0355225 29.2558 -0.0355225 20.9563V7.03333H-0.0319756Z" fill="#E2C36A"/>
<path d="M100.862 7.03329C105.402 7.03329 109.078 10.6528 109.078 15.1625V27.8264C109.078 32.3397 105.384 36.0089 100.844 36.0089H81.6722C77.1323 36.0089 73.4383 32.3397 73.4383 27.8264V-0.0567627H80.367V7.03329H100.86H100.862ZM102.151 12.6691H80.3687V30.4014H102.151V12.6691Z" fill="white"/>
<path d="M125.03 30.4191H148.595V36.0089H123.911C117.832 36.0089 112.889 31.0629 112.889 24.9837V18.0585C112.889 11.9811 117.834 7.03333 123.911 7.03333H143.473C146.263 7.03333 148.531 9.30327 148.531 12.0911V14.2316C148.531 16.0369 147.561 17.7145 145.997 18.6136C141.514 21.1992 136.83 23.8221 132.7 26.1364L125.028 30.4174L125.03 30.4191ZM121.815 25.8455C124.172 24.5119 126.756 23.0595 129.951 21.2737C132.524 19.8319 135.188 18.3387 137.894 16.8048L145.204 12.671H123.883C120.886 12.671 118.481 15.0633 118.481 18.0603V27.7378L121.818 25.8455H121.815Z" fill="white"/>
<path d="M178.017 36.0089H169.498C162.156 36.0089 156.182 32.2705 156.182 24.0721V12.6691H152.397V7.03329H156.182V-0.0567627H163.147V7.03329H174.261V12.6691H163.147L163.153 24.0526C163.153 27.5551 166.001 30.4031 169.503 30.4031H178.023L178.016 36.0089H178.017Z" fill="white"/>
<path d="M69.652 7.03333H61.0333L53.3315 16.3685L45.6296 7.03333H37.0109L48.9494 21.6781L37.0995 36.039L46.0286 36.0089L53.3315 27.0515L60.6343 36.0089L69.5368 36.039L57.7117 21.6781L69.652 7.03333Z" fill="#E2C36A"/>
</g>
<defs>
<clipPath id="clip0_717_32">
<rect width="178.049" height="36" fill="white"/>
</clipPath>
</defs>
</svg>
