<svg width="103" height="39" viewBox="0 0 103 39" fill="none" xmlns="http://www.w3.org/2000/svg">
<path d="M3.7829 13.6727H7.46605V21.7961C7.46605 24.211 9.4316 26.1766 11.8474 26.1766H17.9018V13.6727H21.5849V29.1947H11.8465C7.39955 29.1947 3.781 25.5771 3.781 21.1311V13.6727H3.7829Z" fill="#E2C36A"/>
<path d="M57.8312 13.6727C60.2632 13.6727 62.2326 15.6116 62.2326 18.0275V24.8114C62.2326 27.2292 60.2538 29.1947 57.8218 29.1947H47.5513C45.1193 29.1947 43.1404 27.2292 43.1404 24.8114V9.8746H46.8521V13.6727H57.8303H57.8312ZM58.5219 16.6918H46.8531V26.1908H58.5219V16.6918Z" fill="white"/>
<path d="M70.7778 26.2003H83.4014V29.1947H70.1784C66.9218 29.1947 64.2741 26.5452 64.2741 23.2886V19.5788C64.2741 16.3232 66.9227 13.6727 70.1784 13.6727H80.6578C82.1522 13.6727 83.3672 14.8887 83.3672 16.3821V17.5287C83.3672 18.4958 82.8476 19.3945 82.0097 19.8762C79.6081 21.2613 77.0991 22.6663 74.8866 23.9061L70.7769 26.1994L70.7778 26.2003ZM69.0555 23.7503C70.318 23.0359 71.7022 22.2578 73.4141 21.3012C74.7925 20.5288 76.2194 19.7289 77.6691 18.9072L81.585 16.6927H70.1632C68.5577 16.6927 67.2695 17.9743 67.2695 19.5798V24.7639L69.0574 23.7503H69.0555Z" fill="white"/>
<path d="M99.1629 29.1947H94.5991C90.6661 29.1947 87.4656 27.1921 87.4656 22.8003V16.6918H85.4382V13.6727H87.4656V9.8746H91.1971V13.6727H97.1508V16.6918H91.1971L91.2 22.7898C91.2 24.6661 92.7257 26.1918 94.602 26.1918H99.1657L99.162 29.1947H99.1629Z" fill="white"/>
<path d="M41.1122 13.6727H36.4952L32.3694 18.6735L28.2435 13.6727H23.6265L30.0219 21.5178L23.674 29.2109L28.4572 29.1947L32.3694 24.3963L36.2815 29.1947L41.0504 29.2109L34.7158 21.5178L41.1122 13.6727Z" fill="#E2C36A"/>
</svg>
